<?xml version="1.0" encoding="UTF-8"?>
<svg width="300px" height="300px" viewBox="0 0 300 300" version="1.1" xmlns="http://www.w3.org/2000/svg" xmlns:xlink="http://www.w3.org/1999/xlink">
    <!-- Generator: Sketch 42 (36781) - http://www.bohemiancoding.com/sketch -->
    <title>Rectangle</title>
    <desc>Created with Sketch.</desc>
    <defs></defs>
    <g id="Page-1" stroke="none" stroke-width="1" fill="none" fill-rule="evenodd">
        <rect id="Rectangle" fill="#E03E2F" x="0" y="0" width="300" height="300"></rect>
        <path d="M273.220287,222.855608 C279.004771,232.90121 279.565256,243.46418 274.758026,251.813957 C269.957982,260.17092 260.56628,264.956592 248.990126,264.956592 L227.174358,264.956592 C227.433042,260.889489 227.6055,256.786458 227.6055,252.654683 C227.6055,248.027096 227.389928,243.456995 227.073758,238.901264 L241.423589,238.886893 C244.951766,238.886893 247.804487,236.0198 247.804487,232.48444 C247.804487,231.377842 247.524244,230.350288 247.035617,229.430519 L155.576099,70.4614019 C154.491059,68.52845 152.414393,67.2206537 150.035928,67.2206537 C147.722135,67.2206537 145.695768,68.4565931 144.5748,70.3105023 L130.052512,95.5538467 C174.187047,128.823612 203.85678,180.366597 207.916697,238.886893 C208.232867,243.435438 208.448438,248.005539 208.448438,252.640312 C208.448438,256.772086 208.275981,260.867932 208.024482,264.94222 L136.778322,264.94222 C137.166349,260.889489 137.389106,256.793643 137.389106,252.640312 C137.389106,247.991168 137.11605,243.406694 136.613051,238.886893 C133.092061,206.680611 117.326647,178.139032 94.1096689,157.997531 L84.1071823,175.37254 C101.647462,191.698437 113.618829,213.930976 116.873949,238.886893 C117.463176,243.392323 117.793718,247.976796 117.793718,252.640312 C117.793718,256.793643 117.520661,260.903861 117.053591,264.94222 L51.009874,264.94222 C39.4337202,264.94222 30.0420177,260.149363 25.2419738,251.7924 C20.4347443,243.442623 20.9952285,232.886838 26.7797124,222.834051 L40.3391177,199.595516 C48.1140391,203.770404 55.098534,209.209975 61.0554747,215.648357 L52.9715685,229.416147 C52.490127,230.32873 52.2026993,231.36347 52.2026993,232.470068 C52.2026993,236.00543 55.0554199,238.865336 58.5835958,238.865336 L90.6174214,238.879707 C87.9299717,223.523879 80.8448771,209.669859 70.6986766,198.697304 C64.7201789,192.251736 57.7356839,186.797794 49.9607626,182.622905 L85.7311493,120.473835 C93.3479853,124.734952 100.555237,129.621224 107.295418,135.096723 C138.122047,160.110125 158.939004,197.05178 162.711493,238.872521 L181.882926,238.872521 C177.973909,189.981057 153.406019,146.86689 116.945806,118.325312 C110.11221,112.979156 102.876216,108.135998 95.2737514,103.867695 L125.805767,50.822899 C131.583065,40.7701126 140.42147,35 150.035928,35 C159.643202,35 168.47442,40.7701126 174.258904,50.822899 L273.220287,222.855608 L273.220287,222.855608 Z" id="Shape" fill="#FFFFFF" fill-rule="nonzero"></path>
    </g>
</svg>