<?xml version="1.0" encoding="UTF-8" standalone="no"?>
<svg width="275px" height="314px" viewBox="0 0 275 314" version="1.1" xmlns="http://www.w3.org/2000/svg" xmlns:xlink="http://www.w3.org/1999/xlink" xmlns:sketch="http://www.bohemiancoding.com/sketch/ns">
    <!-- Generator: Sketch 3.4.1 (15681) - http://www.bohemiancoding.com/sketch -->
    <title>A4</title>
    <desc>Created with Sketch.</desc>
    <defs></defs>
    <g id="Page-1" stroke="none" stroke-width="1" fill="none" fill-rule="evenodd" sketch:type="MSPage">
        <g id="A4" sketch:type="MSArtboardGroup" fill="#B0197E">
            <g id="Page-1" sketch:type="MSLayerGroup">
                <path d="M84.21,259.98 C82.89,260.85 82.67,262.5 82.74,263.96 C82.78,273.97 82.73,283.99 82.76,294 C82.45,295.75 83.67,297.09 85.08,297.9 C87.54,299 90.62,296.68 90.23,293.99 C90.26,283.68 90.26,273.36 90.24,263.05 C90.54,260 86.5,258.03 84.21,259.98 M132.4,259.39 C130.97,260 129.7,261.32 129.8,262.98 C129.7,273.31 129.76,283.64 129.77,293.97 C129.44,296.86 132.43,298.6 135,298.25 C173.34,298.25 211.69,298.25 250.03,298.24 C252.64,298.62 255.47,296.83 255.23,293.95 C255.24,283.63 255.3,273.29 255.2,262.97 C255.24,260.87 253.14,259 251.07,259.26 C211.51,259.34 171.94,259.07 132.4,259.39 M100.49,259.61 C98.8,260.31 98.37,262.34 98.49,263.99 C98.53,274.01 98.47,284.04 98.51,294.06 C98.24,296.11 100.01,298.18 102.1,298.16 C104.21,298.22 106.2,296.3 105.99,294.14 C106.01,283.76 106.01,273.37 105.98,262.99 C106.06,260.29 102.9,258.28 100.49,259.61 M69.53,259.4 C67.67,260 66.81,262.04 66.99,263.87 C67.07,274.26 66.88,284.66 67.08,295.05 C67.54,299.05 74.08,299.08 74.43,295.01 C74.58,284.36 74.47,273.7 74.49,263.06 C74.72,260.5 71.86,258.55 69.53,259.4 M53.43,259.57 C52.23,260.26 51.2,261.56 51.26,263.01 C51.24,273.33 51.25,283.66 51.26,293.98 C51.08,295.81 52.32,297.64 54.16,298 C56.54,298.86 59.06,296.41 58.74,294.04 C58.75,283.69 58.76,273.35 58.74,263 C59.04,260.3 55.74,258.33 53.43,259.57 M37.6,259.67 C35.96,260.45 35.35,262.33 35.5,264.03 C35.56,274.38 35.39,284.74 35.58,295.08 C36.18,299.03 42.46,299.09 42.93,295.08 C43.09,284.36 42.97,273.63 42.98,262.9 C43.24,260.21 39.83,258.26 37.6,259.67 M19.79,263.03 C19.75,273.59 19.68,284.17 19.83,294.73 C20.17,298.67 25.32,299.1 27.22,296.05 C27.84,286.4 27.32,276.72 27.52,267.06 C27.42,264.69 27.92,261.68 25.86,259.98 C23.59,257.98 19.66,260.1 19.79,263.03 M68.64,16.85 C55.36,17.35 42.08,17.91 28.85,19.24 C23.37,19.45 18.93,24.53 18.92,29.92 C15.68,62.18 15.73,94.64 15.99,127.01 C16.44,145.72 17,164.47 19.04,183.09 C19.44,187.98 23.62,192.35 28.57,192.69 C56.95,195.32 85.48,195.65 113.96,196 C157.73,195.96 201.58,196.53 245.23,192.82 C250.62,192.89 255.55,188.46 255.96,183.08 C258.77,157.48 258.85,131.7 259.26,105.99 C258.85,80.27 258.79,54.49 255.95,28.88 C255.59,23.56 250.74,19.13 245.42,19.15 C210.05,16.01 174.5,16.18 139.03,15.75 C115.56,15.98 92.09,16 68.64,16.85 M13.6,0 L261.51,0 C268.32,0.88 274,6.54 275,13.31 L275,222.32 C273.88,229.05 268.17,234.91 261.25,235.44 C255.83,235.62 250.41,235.44 245,235.5 L245,243.25 C252.61,243.32 260.22,243.1 267.82,243.33 C270.13,243.42 271.44,245.87 271.23,247.98 C271.26,268.66 271.28,289.34 271.22,310.01 C271.36,311.83 270.02,313.11 268.61,314 L6.56,314 C5.01,313.23 3.63,311.88 3.78,310 C3.72,289.31 3.74,268.61 3.77,247.92 C3.57,245.83 4.9,243.41 7.19,243.33 C14.37,243.1 21.56,243.32 28.75,243.25 L28.75,235.5 C23.19,235.32 17.58,235.89 12.06,235.2 C5.85,233.92 1.04,228.47 0,222.29 L0,13.28 C1.03,6.49 6.75,0.79 13.6,0" id="Fill-1" sketch:type="MSShapeGroup"></path>
                <!-- Hudson was here :) -->
                <path d="M106.29,78.05 C106.19,88.37 106.29,98.7 106.24,109.03 C106.17,110.35 106.19,112.37 108.12,112.17 C115.33,112.41 122.55,112.09 129.76,112.32 C129.75,115.95 129.75,119.58 129.75,123.2 C126.52,123.27 123.3,123.27 120.07,123.22 C120.03,121.73 120,120.24 119.97,118.75 C115.4,118.76 110.82,118.75 106.25,118.76 C106.33,124.11 106.09,129.48 106.35,134.83 C106.6,135.03 107.1,135.42 107.35,135.61 C118.23,135.94 129.13,135.64 140.02,135.76 C141.4,135.79 143.8,135.88 143.68,133.86 C143.84,123.55 143.7,113.23 143.75,102.92 C143.76,101.71 143.72,99.58 141.89,99.84 C134.76,99.56 127.61,99.95 120.48,99.67 C119.36,96.28 120.27,92.31 120.05,88.7 C123.29,88.44 126.57,88.27 129.79,88.81 C129.77,90.28 129.75,91.76 129.74,93.24 C134.41,93.25 139.08,93.25 143.75,93.25 C143.61,87.96 144.02,82.64 143.56,77.37 C143.36,77.13 142.98,76.64 142.78,76.39 C131.84,76.04 120.88,76.37 109.93,76.23 C108.57,76.29 105.96,75.86 106.29,78.05 L106.29,78.05 Z M175.25,51.25 L175.25,98.25 L168.75,98.25 L168.75,85.75 L150.25,85.75 C150.25,99.25 150.24,112.75 150.26,126.25 C156.42,126.24 162.58,126.25 168.75,126.25 L168.75,113.75 L175.25,113.75 L175.25,160.75 L194,160.75 L194,51.25 L175.25,51.25 Z M81.04,57.69 C80.97,89.88 80.98,122.09 81.03,154.29 C80.94,157.57 83.67,160.77 87.05,160.74 C112.05,160.78 137.05,160.72 162.05,160.76 C165.39,161.09 168.67,158.35 168.74,154.96 C168.78,147.56 168.73,140.16 168.75,132.75 L150.25,132.75 C150.16,135.21 150.53,137.73 150,140.15 C149.55,141.83 147.62,142.38 146.07,142.25 C131.74,142.25 117.4,142.26 103.06,142.24 C101.36,142.33 99.48,140.89 99.76,139.05 C99.74,117.03 99.74,94.99 99.76,72.97 C99.51,71.14 101.23,69.56 103.02,69.76 C117.94,69.78 132.86,69.66 147.77,69.82 C151.75,71.11 149.79,76.17 150.25,79.25 L168.75,79.25 C168.73,71.85 168.78,64.46 168.74,57.07 C168.65,54.09 166.05,51.25 162.99,51.26 C137.67,51.24 112.34,51.25 87.01,51.26 C83.63,51.18 80.9,54.4 81.04,57.69 L81.04,57.69 Z M114.51,23.59 C153.97,23.47 193.69,22.79 232.82,28.61 C239.49,28.95 245.64,34.13 246.52,40.86 C251.53,65.91 251.59,91.61 251.5,117.06 C250.94,135.42 250.19,153.91 246.34,171.93 C245.24,178.05 239.54,182.74 233.44,183.24 C206.85,187.53 179.85,187.89 152.99,188.51 C116.03,188.44 78.84,188.83 42.18,183.35 C35.54,182.98 29.38,177.82 28.48,171.12 C23.43,145.77 23.38,119.77 23.51,94.02 C24.12,75.98 24.84,57.8 28.66,40.09 C29.71,34.25 34.93,29.49 40.81,28.84 C65.15,24.79 89.9,24.22 114.51,23.59 L114.51,23.59 Z" id="Fill-3" sketch:type="MSShapeGroup"></path>
            </g>
        </g>
    </g>
</svg>