<?xml version="1.0" standalone="no"?>
<!DOCTYPE svg PUBLIC "-//W3C//DTD SVG 20010904//EN"
 "http://www.w3.org/TR/2001/REC-SVG-20010904/DTD/svg10.dtd">
<svg version="1.0" xmlns="http://www.w3.org/2000/svg"
 width="800.000000pt" height="800.000000pt" viewBox="0 0 800.000000 800.000000"
 preserveAspectRatio="xMidYMid meet">
<metadata>
Created by potrace 1.11, written by Peter Selinger 2001-2013
</metadata>
<g transform="translate(0.000000,800.000000) scale(0.100000,-0.100000)"
fill="#000000" stroke="none">
<path d="M545 7914 c-113 -24 -216 -66 -280 -116 -126 -97 -223 -246 -254
-393 -3 -16 -6 -1553 -6 -3415 1 -3418 1 -3433 33 -3484 3 -6 7 -17 8 -23 6
-38 86 -156 148 -218 82 -81 179 -135 296 -165 73 -19 138 -20 2838 -20 2349
0 2767 2 2796 14 35 15 87 72 93 103 6 29 6 1745 0 1775 -8 39 -35 75 -76 100
l-36 23 -540 0 c-297 0 -552 -4 -567 -8 -34 -9 -85 -57 -99 -93 -5 -15 -10
-114 -9 -222 0 -249 -8 -278 -85 -328 -28 -19 -71 -19 -1685 -20 -1629 -1
-1656 0 -1695 19 -41 20 -62 43 -81 87 -8 18 -11 729 -10 2480 1 2303 2 2457
18 2480 31 44 42 55 78 71 31 14 207 15 1690 14 1814 -1 1673 4 1732 -60 14
-16 29 -41 31 -55 3 -14 6 -117 7 -230 1 -199 1 -206 26 -247 47 -81 19 -77
639 -77 l550 -1 38 24 c21 13 47 41 59 64 21 41 21 46 21 922 0 981 4 916 -70
972 l-36 28 -2776 1 c-1527 1 -2785 0 -2796 -2z"/>
<path d="M6754 7900 c-26 -13 -49 -35 -64 -62 l-23 -41 -1 -1562 c-1 -1514 -2
-1562 -20 -1590 -47 -74 -73 -84 -207 -82 -103 2 -117 4 -148 26 -65 47 -69
68 -69 422 0 358 -2 369 -75 417 l-40 27 -546 0 c-532 0 -547 0 -586 -20 -28
-14 -47 -35 -62 -66 l-23 -44 0 -1329 0 -1329 25 -43 c49 -83 26 -81 645 -79
432 1 550 4 570 14 32 17 69 59 82 91 6 15 10 159 10 345 1 290 2 323 19 357
34 68 80 88 204 88 98 1 134 -9 176 -49 46 -45 44 30 45 -1623 1 -1740 -5
-1606 71 -1658 l37 -25 405 -2 c368 -2 412 -1 466 16 98 29 165 70 232 141 43
45 99 156 112 222 8 38 10 1068 8 3558 -2 1928 -5 3514 -8 3525 -20 87 -71
175 -140 243 -41 40 -153 104 -209 119 -14 4 -209 8 -435 10 -397 3 -411 3
-451 -17z"/>
<path d="M1885 6118 c-51 -18 -86 -58 -102 -118 -8 -29 -5 -2306 2 -2331 13
-41 45 -79 83 -98 35 -17 78 -18 749 -19 l711 0 45 -31 c69 -47 73 -69 72
-371 0 -237 -2 -258 -21 -295 -13 -25 -36 -49 -62 -63 -40 -22 -51 -23 -247
-24 -216 0 -249 5 -290 47 -23 22 -36 48 -40 80 -13 91 -20 114 -41 143 -51
66 -50 66 -449 67 -198 0 -377 -3 -397 -8 -45 -11 -90 -51 -108 -95 -10 -26
-13 -138 -13 -516 0 -539 -1 -529 71 -584 l35 -27 1217 -2 c1095 -1 1219 0
1249 14 35 18 82 70 89 100 2 10 5 533 6 1163 1 799 -2 1156 -9 1183 -14 48
-53 90 -98 104 -23 7 -267 10 -734 10 -628 0 -702 2 -731 17 -45 23 -81 66
-88 105 -4 19 -7 145 -7 280 0 253 4 282 45 332 14 17 55 41 78 46 8 2 106 3
217 4 l203 1 46 -27 c51 -30 76 -74 79 -140 0 -22 7 -51 15 -65 7 -14 12 -25
10 -25 -2 0 5 -10 15 -23 46 -55 51 -56 445 -57 279 -1 374 2 404 12 46 16 92
61 103 100 4 15 7 246 7 513 0 453 -1 487 -18 520 -21 39 -46 60 -92 77 -42
15 -2404 16 -2449 1z"/>
</g>
</svg>
