<?xml version="1.0" encoding="UTF-8" standalone="no"?>
<svg
   xmlns:dc="http://purl.org/dc/elements/1.1/"
   xmlns:cc="http://creativecommons.org/ns#"
   xmlns:rdf="http://www.w3.org/1999/02/22-rdf-syntax-ns#"
   xmlns:svg="http://www.w3.org/2000/svg"
   xmlns="http://www.w3.org/2000/svg"
   xml:space="preserve"
   enable-background="new 0 0 252.043 252.043"
   viewBox="0 0 252.043 252.043"
   height="252.043px"
   width="252.043px"
   y="0px"
   x="0px"
   id="Layer_1"
   version="1.1"><metadata
     id="metadata59"><rdf:RDF><cc:Work
         rdf:about=""><dc:format>image/svg+xml</dc:format><dc:type
           rdf:resource="http://purl.org/dc/dcmitype/StillImage" /><dc:title></dc:title></cc:Work></rdf:RDF></metadata><defs
     id="defs57" /><rect
     y="-7.7372198"
     x="-21.144901"
     height="265.82162"
     width="289.98721"
     id="rect3763"
     style="fill:#eeeeee;fill-opacity:1" /><path
     style="fill:#989898"
     id="path2"
     d="m 48.603,124.402 c -3.53,-6.792 -11.054,-10.238 -22.378,-10.243 -12.858,0 -23.612,6.575 -23.749,16.692 -0.053,3.886 1.994,8.699 4.835,11.367 3.597,3.377 9.201,5.268 15.785,5.324 l 0.344,0.001 c 4.203,0 9.014,-1.403 8.522,-1.259 l 1.199,-0.367 -1.017,-3.511 c -2.962,0.978 -5.392,1.358 -8.662,1.358 l -0.301,-0.002 C 17.912,143.718 7.455,141.761 7.068,131.431 6.681,121.101 17.7,118.065 26.243,118.587 h 0.136 c 6.129,0 13.81,2.207 16.629,6.425 2.911,4.355 2.532,9.471 -0.902,12.166 -0.181,0.142 -0.446,0.214 -0.787,0.214 -0.813,0 -1.734,-0.415 -1.948,-0.593 -0.21,-0.174 -0.581,-0.381 -1.159,-0.381 -1.24,0 -2.981,0.999 -4.657,2.023 -0.19,0.116 -0.353,0.216 -0.479,0.289 -0.69,0.402 -0.985,1.075 -0.77,1.758 0.428,1.354 2.734,2.338 5.483,2.338 1.515,0 3.071,-0.287 4.625,-0.853 2.081,-0.759 4.993,-3.414 6.534,-7.022 1.058,-2.475 1.856,-6.314 -0.345,-10.549 z" /><g
     transform="translate(0,105.405)"
     id="g10"><g
       id="g8"><path
         style="fill:#39b24a"
         id="path4"
         d="m 18.645,35.991 c -1.987,0 -3.707,-0.712 -5.112,-2.117 -1.405,-1.39 -2.118,-3.104 -2.118,-5.094 v -5.993 c 0,-1.974 0.712,-3.688 2.118,-5.093 1.406,-1.405 3.125,-2.118 5.112,-2.118 h 12.127 c 1.562,0 3.011,0.396 4.321,1.18 L 34.821,1.432 h 6.45 l -0.004,26.075 c 0,2.33 -0.84,4.352 -2.496,6.008 -1.658,1.644 -3.679,2.477 -6.008,2.477 H 18.645 Z m 1.991,-15.85 c -0.852,0 -1.557,0.291 -2.155,0.889 -0.612,0.601 -0.909,1.305 -0.909,2.155 v 5.197 c 0,0.851 0.296,1.555 0.905,2.153 0.604,0.615 1.309,0.911 2.159,0.911 h 10.136 c 1.201,0 2.205,-0.421 3.071,-1.287 0.853,-0.852 1.267,-1.85 1.267,-3.051 V 24.46 c 0,-1.2 -0.415,-2.199 -1.267,-3.052 -0.864,-0.852 -1.87,-1.267 -3.071,-1.267 z" /><path
         style="fill:#ffffff"
         id="path6"
         d="m 40.771,1.932 -0.004,25.575 c 0,2.203 -0.783,4.088 -2.35,5.654 -1.566,1.553 -3.452,2.33 -5.655,2.33 H 18.645 c -1.858,0 -3.445,-0.657 -4.759,-1.971 -1.314,-1.301 -1.971,-2.881 -1.971,-4.74 v -5.993 c 0,-1.845 0.657,-3.425 1.971,-4.739 1.314,-1.314 2.9,-1.971 4.759,-1.971 h 12.127 c 1.792,0 3.405,0.544 4.838,1.633 L 35.33,1.932 h 5.441 M 20.636,31.946 h 10.136 c 1.327,0 2.469,-0.478 3.425,-1.434 0.942,-0.941 1.414,-2.077 1.414,-3.404 V 24.46 c 0,-1.328 -0.471,-2.462 -1.414,-3.405 -0.956,-0.942 -2.098,-1.414 -3.425,-1.414 H 20.636 c -0.982,0 -1.818,0.345 -2.509,1.035 -0.704,0.69 -1.055,1.527 -1.055,2.508 v 5.197 c 0,0.982 0.352,1.819 1.055,2.51 0.691,0.704 1.527,1.055 2.509,1.055 M 41.771,0.932 h -1 -5.441 -1.018 L 34.33,1.95 34.578,15.915 C 33.4,15.358 32.126,15.077 30.772,15.077 H 18.645 c -2.125,0 -3.963,0.762 -5.466,2.264 -1.503,1.502 -2.264,3.334 -2.264,5.446 v 5.993 c 0,2.128 0.763,3.962 2.268,5.451 1.499,1.498 3.338,2.26 5.462,2.26 h 14.118 c 2.466,0 4.605,-0.882 6.359,-2.62 1.756,-1.756 2.646,-3.896 2.646,-6.364 L 41.772,1.932 v -1 z M 20.636,30.946 c -0.709,0 -1.296,-0.247 -1.795,-0.755 -0.521,-0.513 -0.769,-1.1 -0.769,-1.81 v -5.197 c 0,-0.708 0.247,-1.295 0.755,-1.794 0.507,-0.506 1.096,-0.749 1.809,-0.749 h 10.136 c 1.063,0 1.954,0.368 2.723,1.126 0.749,0.749 1.116,1.631 1.116,2.693 v 2.648 c 0,1.062 -0.366,1.943 -1.12,2.697 -0.768,0.768 -1.657,1.141 -2.718,1.141 H 20.636 Z" /></g></g><g
     transform="translate(0,105.405)"
     id="g16"><path
       style="fill:#39b24a"
       id="path12"
       d="M 82.845,35.991 V 23.185 c 0,-0.851 -0.291,-1.556 -0.889,-2.155 -0.601,-0.612 -1.305,-0.909 -2.155,-0.909 h -7.029 c -0.852,0 -1.557,0.291 -2.155,0.889 -0.597,0.609 -0.889,1.315 -0.889,2.155 V 35.991 H 63.57 V 23.185 c 0,-0.853 -0.292,-1.565 -0.893,-2.178 -0.595,-0.594 -1.3,-0.885 -2.152,-0.885 H 54.77 c -1.201,0 -2.199,0.415 -3.051,1.267 -0.852,0.852 -1.267,1.858 -1.267,3.072 V 35.992 H 44.294 V 23.163 h 0.054 c 0.194,-2.043 1.058,-3.804 2.571,-5.239 1.642,-1.558 3.614,-2.347 5.86,-2.347 h 8.742 c 2.024,0 3.744,0.721 5.119,2.145 1.387,-1.424 3.112,-2.145 5.136,-2.145 h 10.016 c 1.973,0 3.686,0.705 5.091,2.096 1.407,1.407 2.12,3.127 2.12,5.115 v 13.204 h -6.158 z" /><path
       style="fill:#ffffff"
       id="path14"
       d="m 81.792,16.077 c 1.845,0 3.425,0.651 4.739,1.951 1.314,1.314 1.971,2.901 1.971,4.759 V 35.491 H 83.345 V 23.185 c 0,-0.981 -0.346,-1.818 -1.035,-2.508 -0.69,-0.703 -1.527,-1.055 -2.509,-1.055 h -7.029 c -0.983,0 -1.819,0.346 -2.509,1.035 -0.691,0.704 -1.036,1.541 -1.036,2.509 V 35.492 H 64.07 V 23.185 c 0,-0.981 -0.346,-1.824 -1.036,-2.528 -0.69,-0.689 -1.527,-1.035 -2.509,-1.035 H 54.77 c -1.328,0 -2.462,0.471 -3.405,1.414 -0.943,0.943 -1.414,2.084 -1.414,3.425 V 35.492 H 44.793 V 23.663 h 0.02 c 0.093,-2.124 0.909,-3.916 2.449,-5.376 1.553,-1.473 3.392,-2.21 5.516,-2.21 h 8.742 c 2.071,0 3.776,0.796 5.118,2.39 1.354,-1.593 3.066,-2.39 5.137,-2.39 h 10.017 m 0,-1 H 71.776 c -1.994,0 -3.717,0.654 -5.134,1.948 -1.409,-1.293 -3.126,-1.948 -5.121,-1.948 h -8.742 c -2.378,0 -4.466,0.836 -6.204,2.484 -1.492,1.415 -2.388,3.128 -2.671,5.102 h -0.09 l -0.02,1 v 11.828 1 h 1 5.158 1 v -1 -11.031 c 0,-1.075 0.367,-1.964 1.121,-2.718 0.754,-0.754 1.637,-1.121 2.698,-1.121 h 5.755 c 0.712,0 1.302,0.243 1.802,0.743 0.497,0.507 0.742,1.105 0.742,1.821 v 12.307 1 h 1 5.157 1 v -1 -12.327 c 0,-0.703 0.245,-1.294 0.75,-1.809 0.493,-0.493 1.082,-0.735 1.795,-0.735 H 79.8 c 0.709,0 1.296,0.247 1.796,0.756 0.505,0.506 0.749,1.096 0.749,1.808 v 12.307 1 h 1 5.157 1 v -1 -12.705 c 0,-2.125 -0.762,-3.964 -2.264,-5.466 -1.506,-1.49 -3.337,-2.244 -5.446,-2.244 z" /></g><g
     transform="translate(0,105.405)"
     id="g22"><path
       style="fill:#39b24a"
       id="path18"
       d="m 98.772,35.991 c -2.117,0 -3.861,-0.569 -5.182,-1.692 -1.347,-1.158 -2.028,-2.692 -2.028,-4.562 v -0.278 c 0,-1.869 0.682,-3.403 2.026,-4.561 1.322,-1.138 3.066,-1.715 5.185,-1.715 h 13.421 c 1.102,0 2.123,0.169 3.044,0.504 v -0.8 c 0,-0.674 -0.282,-1.273 -0.862,-1.83 -0.63,-0.618 -1.343,-0.916 -2.183,-0.916 H 93.772 v -4.564 h 20.413 c 1.943,0 3.647,0.69 5.064,2.051 1.423,1.352 2.146,2.988 2.146,4.861 v 6.97 c -0.015,1.972 -0.686,3.575 -1.995,4.77 -1.315,1.172 -3.068,1.764 -5.215,1.764 H 98.772 Z m 1.992,-8.443 c -0.783,0 -1.441,0.124 -1.955,0.369 -0.743,0.355 -1.089,0.846 -1.089,1.541 v 0.278 c 0,0.695 0.346,1.185 1.089,1.54 0.523,0.244 1.182,0.369 1.955,0.369 h 11.43 c 2.729,0 3.044,-1.26 3.044,-2.207 0,-0.683 -0.346,-1.166 -1.089,-1.521 -0.524,-0.244 -1.184,-0.369 -1.956,-0.369 z" /><path
       style="fill:#ffffff"
       id="path20"
       d="m 114.185,16.077 c 1.818,0 3.391,0.637 4.718,1.912 1.328,1.262 1.992,2.761 1.992,4.5 v 6.97 c -0.014,1.832 -0.625,3.299 -1.832,4.4 -1.223,1.089 -2.847,1.633 -4.878,1.633 H 98.772 c -2.004,0 -3.624,-0.524 -4.858,-1.573 -1.234,-1.062 -1.852,-2.456 -1.852,-4.182 v -0.278 c 0,-1.726 0.618,-3.119 1.852,-4.182 1.234,-1.063 2.854,-1.594 4.858,-1.594 h 13.421 c 1.327,0 2.509,0.253 3.544,0.758 v -1.554 c 0,-0.81 -0.338,-1.54 -1.016,-2.19 -0.717,-0.703 -1.56,-1.055 -2.529,-1.055 h -17.92 v -3.564 h 19.913 m -13.421,16.068 h 11.43 c 2.363,0 3.544,-0.902 3.544,-2.707 0,-0.877 -0.457,-1.534 -1.373,-1.973 -0.598,-0.278 -1.323,-0.418 -2.171,-0.418 h -11.43 c -0.863,0 -1.586,0.14 -2.17,0.418 -0.916,0.438 -1.374,1.104 -1.374,1.992 v 0.278 c 0,0.89 0.458,1.554 1.374,1.991 0.597,0.28 1.32,0.419 2.17,0.419 m 13.421,-17.069 h -19.913 -1 v 1 3.564 1 h 1 17.921 c 0.703,0 1.301,0.251 1.829,0.77 0.484,0.465 0.716,0.945 0.716,1.476 v 0.118 c -0.792,-0.214 -1.644,-0.322 -2.544,-0.322 H 98.772 c -2.241,0 -4.096,0.617 -5.511,1.836 -1.459,1.256 -2.2,2.918 -2.2,4.939 v 0.278 c 0,2.022 0.74,3.685 2.2,4.939 1.419,1.206 3.271,1.815 5.51,1.815 h 15.413 c 2.273,0 4.138,-0.635 5.543,-1.886 1.425,-1.301 2.151,-3.027 2.167,-5.14 v -6.978 c 0,-2.015 -0.775,-3.773 -2.303,-5.225 -1.509,-1.448 -3.329,-2.184 -5.406,-2.184 z m -13.421,16.069 c -0.699,0 -1.287,-0.109 -1.747,-0.324 -0.7,-0.334 -0.797,-0.719 -0.797,-1.085 v -0.278 c 0,-0.349 0.096,-0.75 0.806,-1.09 0.445,-0.213 1.031,-0.32 1.739,-0.32 h 11.43 c 0.698,0 1.287,0.109 1.75,0.324 0.699,0.335 0.795,0.728 0.795,1.066 0,0.597 0,1.707 -2.544,1.707 z" /></g><g
     transform="translate(0,105.405)"
     id="g28"><path
       style="fill:#39b24a"
       id="path24"
       d="M 123.956,35.991 V 22.728 c 0,-1.96 0.706,-3.66 2.098,-5.053 1.392,-1.392 3.091,-2.098 5.052,-2.098 h 17.008 v 4.564 h -15.016 c -0.827,0 -1.521,0.285 -2.121,0.873 -0.581,0.582 -0.865,1.274 -0.865,2.112 v 12.865 z" /><path
       style="fill:#ffffff"
       id="path26"
       d="m 147.613,16.077 v 3.564 h -14.516 c -0.957,0 -1.779,0.338 -2.471,1.015 -0.676,0.677 -1.016,1.5 -1.016,2.47 v 12.365 h -5.156 V 22.728 c 0,-1.832 0.65,-3.398 1.951,-4.7 1.3,-1.3 2.867,-1.951 4.699,-1.951 h 16.509 m 1,-1 h -1 -16.508 c -2.098,0 -3.917,0.755 -5.406,2.244 -1.489,1.49 -2.244,3.309 -2.244,5.407 v 12.764 1 h 1 5.156 1 v -1 -12.366 c 0,-0.699 0.236,-1.275 0.724,-1.763 0.493,-0.483 1.072,-0.722 1.763,-0.722 h 14.516 1 v -1 -3.564 -1 z" /></g><g
     transform="translate(0,105.405)"
     id="g34"><path
       style="fill:#39b24a"
       id="path30"
       d="m 157.385,35.991 c -2.329,0 -4.35,-0.833 -6.006,-2.475 -1.658,-1.658 -2.498,-3.68 -2.498,-6.01 v -3.445 c 0,-2.332 0.84,-4.347 2.497,-5.99 1.656,-1.655 3.677,-2.495 6.007,-2.495 h 18.641 v 4.564 h -16.648 c -1.214,0 -2.219,0.415 -3.072,1.267 -0.853,0.853 -1.268,1.851 -1.268,3.052 v 2.648 c 0,1.201 0.414,2.199 1.268,3.051 0.855,0.867 1.859,1.287 3.072,1.287 h 16.648 v 4.545 h -18.641 z" /><path
       style="fill:#ffffff"
       id="path32"
       d="m 175.525,16.077 v 3.564 h -16.148 c -1.342,0 -2.482,0.471 -3.426,1.414 -0.943,0.943 -1.414,2.078 -1.414,3.405 v 2.648 c 0,1.327 0.471,2.463 1.414,3.404 0.943,0.956 2.084,1.434 3.426,1.434 h 16.148 v 3.545 h -18.141 c -2.203,0 -4.088,-0.777 -5.654,-2.33 -1.566,-1.566 -2.35,-3.451 -2.35,-5.654 v -3.445 c 0,-2.203 0.783,-4.082 2.35,-5.635 1.566,-1.566 3.451,-2.35 5.654,-2.35 h 18.141 m 1,-1 h -1 -18.141 c -2.467,0 -4.607,0.889 -6.361,2.643 -1.753,1.738 -2.643,3.873 -2.643,6.342 v 3.445 c 0,2.468 0.889,4.608 2.643,6.361 1.757,1.741 3.896,2.623 6.361,2.623 h 18.141 1 v -1 -3.545 -1 h -1 -16.148 c -1.072,0 -1.96,-0.371 -2.714,-1.136 -0.76,-0.758 -1.126,-1.64 -1.126,-2.702 V 24.46 c 0,-1.062 0.366,-1.944 1.121,-2.698 0.755,-0.754 1.645,-1.121 2.719,-1.121 h 16.148 1 v -1 -3.564 z" /></g><g
     transform="translate(0,105.405)"
     id="g40"><path
       style="fill:#989898"
       id="path36"
       d="M 179.383,35.991 V 15.577 h 6.158 v 20.415 h -6.158 z m 0,-23.018 0.004,-6.177 h 6.174 v 6.177 z" /><path
       style="fill:#ffffff"
       id="path38"
       d="m 185.061,7.295 v 5.177 h -5.178 l 0.004,-5.177 h 5.174 m -0.02,8.782 v 19.415 h -5.158 V 16.077 h 5.158 m 1.02,-9.782 h -1 -5.174 -0.999 l -0.001,0.999 -0.004,5.177 -0.001,1.001 h 1.001 5.178 1 v -1 -5.177 z m -0.02,8.782 h -1 -5.158 -1 v 1 19.415 1 h 1 5.158 1 v -1 -19.415 z" /></g><g
     transform="translate(0,105.405)"
     id="g46"><path
       style="fill:#989898"
       id="path42"
       d="m 195.529,35.991 c -2.116,0 -3.859,-0.569 -5.182,-1.692 -1.346,-1.157 -2.027,-2.692 -2.027,-4.562 v -0.278 c 0,-1.869 0.682,-3.403 2.025,-4.561 1.322,-1.138 3.066,-1.715 5.184,-1.715 h 13.422 c 1.102,0 2.122,0.169 3.045,0.504 v -0.8 c 0,-0.673 -0.282,-1.271 -0.862,-1.83 -0.629,-0.617 -1.342,-0.916 -2.183,-0.916 h -18.422 v -4.564 h 20.412 c 1.941,0 3.646,0.69 5.066,2.051 1.423,1.353 2.145,2.989 2.145,4.861 v 6.97 c -0.015,1.972 -0.686,3.575 -1.995,4.77 -1.313,1.172 -3.066,1.764 -5.216,1.764 h -15.412 z m 1.992,-8.443 c -0.784,0 -1.442,0.124 -1.954,0.369 -0.744,0.356 -1.091,0.846 -1.091,1.541 v 0.278 c 0,0.695 0.347,1.185 1.091,1.54 0.521,0.244 1.18,0.369 1.954,0.369 h 11.43 c 2.729,0 3.045,-1.26 3.045,-2.207 0,-0.682 -0.347,-1.165 -1.091,-1.521 -0.524,-0.244 -1.184,-0.369 -1.954,-0.369 z" /><path
       style="fill:#ffffff"
       id="path44"
       d="m 210.941,16.077 c 1.818,0 3.391,0.637 4.721,1.912 1.326,1.262 1.99,2.761 1.99,4.5 v 6.97 c -0.014,1.832 -0.625,3.299 -1.832,4.4 -1.221,1.089 -2.848,1.633 -4.879,1.633 h -15.412 c -2.004,0 -3.623,-0.524 -4.857,-1.573 -1.234,-1.062 -1.852,-2.456 -1.852,-4.182 v -0.278 c 0,-1.726 0.617,-3.119 1.852,-4.182 1.235,-1.063 2.854,-1.594 4.857,-1.594 h 13.422 c 1.326,0 2.508,0.253 3.545,0.758 v -1.554 c 0,-0.81 -0.34,-1.54 -1.016,-2.19 -0.717,-0.703 -1.561,-1.055 -2.529,-1.055 h -17.922 v -3.564 h 19.912 m -13.42,16.068 h 11.43 c 2.361,0 3.545,-0.902 3.545,-2.707 0,-0.877 -0.459,-1.534 -1.375,-1.973 -0.598,-0.278 -1.32,-0.418 -2.17,-0.418 h -11.43 c -0.863,0 -1.588,0.14 -2.17,0.418 -0.916,0.438 -1.375,1.104 -1.375,1.992 v 0.278 c 0,0.89 0.459,1.554 1.375,1.991 0.596,0.28 1.319,0.419 2.17,0.419 m 13.42,-17.069 h -19.912 -1 v 1 3.564 1 h 1 17.922 c 0.703,0 1.302,0.251 1.829,0.769 0.483,0.466 0.716,0.947 0.716,1.477 v 0.118 c -0.793,-0.214 -1.645,-0.322 -2.545,-0.322 h -13.422 c -2.241,0 -4.095,0.617 -5.51,1.836 -1.459,1.256 -2.199,2.918 -2.199,4.939 v 0.278 c 0,2.022 0.74,3.685 2.199,4.939 1.419,1.206 3.271,1.815 5.51,1.815 h 15.412 c 2.275,0 4.142,-0.635 5.545,-1.887 1.424,-1.3 2.15,-3.026 2.166,-5.139 v -6.978 c 0,-2.014 -0.774,-3.772 -2.301,-5.225 -1.513,-1.448 -3.334,-2.184 -5.41,-2.184 z m -13.42,16.069 c -0.7,0 -1.288,-0.108 -1.745,-0.323 -0.704,-0.336 -0.8,-0.738 -0.8,-1.086 v -0.278 c 0,-0.348 0.096,-0.75 0.807,-1.09 0.444,-0.213 1.029,-0.32 1.738,-0.32 h 11.43 c 0.697,0 1.285,0.109 1.748,0.324 0.701,0.336 0.797,0.728 0.797,1.066 0,0.597 0,1.707 -2.545,1.707 z" /></g><g
     transform="translate(0,105.405)"
     id="g52"><path
       style="fill:#989898"
       id="path48"
       d="M 244.389,35.991 V 23.185 c 0,-0.851 -0.291,-1.556 -0.889,-2.155 -0.6,-0.598 -1.305,-0.889 -2.156,-0.889 h -10.135 c -1.216,0 -2.221,0.415 -3.072,1.267 -0.852,0.853 -1.266,1.852 -1.266,3.052 v 11.531 h -6.158 V 23.083 h 0.06 c 0.218,-2.017 1.094,-3.758 2.605,-5.18 1.627,-1.543 3.592,-2.326 5.839,-2.326 h 14.119 c 1.973,0 3.687,0.712 5.092,2.118 1.405,1.405 2.117,3.118 2.117,5.093 v 13.204 h -6.156 z" /><path
       style="fill:#ffffff"
       id="path50"
       d="m 243.336,16.077 c 1.844,0 3.424,0.657 4.738,1.971 1.314,1.314 1.971,2.895 1.971,4.739 v 12.704 h -5.156 V 23.185 c 0,-0.981 -0.346,-1.818 -1.035,-2.508 -0.691,-0.69 -1.527,-1.035 -2.51,-1.035 h -10.135 c -1.342,0 -2.484,0.471 -3.426,1.414 -0.941,0.943 -1.412,2.078 -1.412,3.405 v 11.031 h -5.158 V 23.583 h 0.02 c 0.119,-2.097 0.949,-3.869 2.488,-5.316 1.539,-1.46 3.371,-2.19 5.496,-2.19 h 14.119 m 0,-1 h -14.119 c -2.379,0 -4.46,0.829 -6.185,2.465 -1.487,1.398 -2.393,3.092 -2.698,5.042 h -0.102 l -0.02,1 v 11.908 1 h 1 5.158 1 v -1 -11.032 c 0,-1.062 0.366,-1.944 1.12,-2.699 0.753,-0.753 1.642,-1.12 2.718,-1.12 h 10.135 c 0.713,0 1.303,0.243 1.804,0.743 0.498,0.499 0.741,1.088 0.741,1.8 v 12.307 1 h 1 5.156 1 v -1 -12.704 c 0,-2.112 -0.762,-3.944 -2.264,-5.446 -1.502,-1.503 -3.334,-2.264 -5.444,-2.264 z" /></g></svg>