<?xml version="1.0" encoding="UTF-8"?>
<svg width="50px" height="49px" viewBox="0 0 50 49" version="1.1" xmlns="http://www.w3.org/2000/svg" xmlns:xlink="http://www.w3.org/1999/xlink">
    <title>mini-logo</title>
    <desc>Computer Science House Logo</desc>
    <defs></defs>
    <g id="Welcome" stroke="none" stroke-width="1" fill="#FFFFFF" fill-rule="evenodd">
        <g id="Desktop" transform="translate(-112.000000, -50.000000)" fill="#FFFFFF">
            <path d="M150.888889,61.6 C150.888889,62.1522847 150.441174,62.6 149.888889,62.6 L143.555556,62.6 C143.003271,62.6 142.555556,62.1522847 142.555556,61.6 L142.555556,59.4 C142.555556,58.8477153 142.10784,58.4 141.555556,58.4 L121.333333,58.4 C120.781049,58.4 120.333333,58.8477153 120.333333,59.4 L120.333333,89.6 C120.333333,90.1522847 120.781049,90.6 121.333333,90.6 L141.555556,90.6 C142.10784,90.6 142.555556,90.1522847 142.555556,89.6 L142.555556,87.4 C142.555556,86.8477153 143.003271,86.4 143.555556,86.4 L149.888889,86.4 C150.441174,86.4 150.888889,86.8477153 150.888889,87.4 L150.888889,98 C150.888889,98.5522847 150.441174,99 149.888889,99 L116,99 C113.790861,99 112,97.209139 112,95 L112,54 C112,51.790861 113.790861,50 116,50 L149.888889,50 C150.441174,50 150.888889,50.4477153 150.888889,51 L150.888889,61.6 Z M138.777778,61.1999067 C139.330063,61.1999067 139.777778,61.6476219 139.777778,62.1999067 L139.777778,67.9 C139.777778,68.4522847 139.330063,68.9 138.777778,68.9 L134.52787,68.9 C133.975586,68.9 133.52787,68.4522847 133.52787,67.9 L133.52787,67.8 C133.52787,67.2477153 133.080155,66.8 132.52787,66.8 L130.361111,66.8 C129.808826,66.8 129.361111,67.2477153 129.361111,67.8 L129.361111,70.7 C129.361111,71.2522847 129.808826,71.7 130.361111,71.7 L138.777778,71.7 C139.330063,71.7 139.777778,72.1477153 139.777778,72.7 L139.777778,86.8 C139.777778,87.3522847 139.330063,87.8 138.777778,87.8 L124.111204,87.8 C123.558919,87.8 123.111204,87.3522847 123.111204,86.8 L123.111204,81.1 C123.111204,80.5477153 123.558919,80.1 124.111204,80.1 L128.361111,80.1 C128.913396,80.1 129.361111,80.5477153 129.361111,81.1 L129.361111,81.1999067 C129.361111,81.7521914 129.808826,82.1999067 130.361111,82.1999067 L132.52787,82.1999067 C133.080155,82.1999067 133.52787,81.7521914 133.52787,81.1999067 L133.52787,78.2999067 C133.52787,77.7476219 133.080155,77.2999067 132.52787,77.2999067 L124.111204,77.2999067 C123.558919,77.2999067 123.111204,76.8521914 123.111204,76.2999067 L123.111204,62.1999067 C123.111204,61.6476219 123.558919,61.1999067 124.111204,61.1999067 L138.777778,61.1999067 Z M150.888889,79 L150.888889,82.6 C150.888889,83.1522847 150.441174,83.6 149.888889,83.6 L143.555556,83.6 C143.003271,83.6 142.555556,83.1522847 142.555556,82.6 L142.555556,66.4 C142.555556,65.8477153 143.003271,65.4 143.555556,65.4 L149.888889,65.4 C150.441174,65.4 150.888889,65.8477153 150.888889,66.4 L150.888889,70 C150.888889,70.5522847 151.336604,71 151.888889,71 L152.666667,71 C153.218951,71 153.666667,70.5522847 153.666667,70 L153.666667,51 C153.666667,50.4477153 154.114382,50 154.666667,50 L159,50 C160.656854,50 162,51.3431458 162,53 L162,96 C162,97.6568542 160.656854,99 159,99 L154.666667,99 C154.114382,99 153.666667,98.5522847 153.666667,98 L153.666667,79 C153.666667,78.4477153 153.218951,78 152.666667,78 L151.888889,78 C151.336604,78 150.888889,78.4477153 150.888889,79 Z" id="mini-logo"></path>
        </g>
    </g>
</svg>
